# xmcd
#
# Track frame offsets:
#	150
#	13942
#	26980
#	42457
#	60717
#	75517
#	89317
#	105127
#	119754
#	133632
#
# Disc length: 2034
#
# Revision: 1
# Processed by: cddbd v1.5.1PL0 Copyright (c) Steve Scherf et al.
# Submitted via: Nero 5.5.9.0
# Normalized: r0:DSETVAR1
#
DISCID=8107f00a
DTITLE=Various Artist - Shades Of Blues 3
DYEAR=1900
DGENRE=
TTITLE0=Big Joe Turner - Skake, Rattle And Roll
TTITLE1=Charles Brown - Rockin' Blues
TTITLE2=Eddie Vinson - Cleanhead Blues
TTITLE3=Gatemouth Moore - Boogie Woogie Papa
TTITLE4=John Wayall - Why Worry
TTITLE5=Charles Brown - I Want A G.I.R.L.
TTITLE6=Eddie Vinson - Old Maid's Boogie
TTITLE7=Gatemouth Moore - I Ain't Mad At You Pretty Baby
TTITLE8=Etta James - At Last
TTITLE9=John Wayall - John Lee Boogie
EXTD=
EXTT0=
EXTT1=
EXTT2=
EXTT3=
EXTT4=
EXTT5=
EXTT6=
EXTT7=
EXTT8=
EXTT9=
PLAYORDER=
